<svg id="Capa_1" enable-background="new 0 0 394.47 394.47" height="512" viewBox="0 0 394.47 394.47" width="512"
     xmlns="http://www.w3.org/2000/svg">
    <path fill="#262e45" d="m352.206 0h-309.941c-23.306 0-42.265 18.959-42.265 42.265v309.941c0 23.306 18.959 42.265 42.265 42.265h309.941c23.306 0 42.265-18.959 42.265-42.265v-309.941c-.001-23.306-18.959-42.265-42.265-42.265zm14.088 352.206c0 7.773-6.315 14.088-14.088 14.088h-309.941c-7.773 0-14.088-6.315-14.088-14.088v-309.941c0-7.773 6.315-14.088 14.088-14.088h309.941c7.773 0 14.088 6.315 14.088 14.088z"/>
    <path fill="#262e45" d="m211.323 84.529h-84.529c-7.787 0-14.088 6.301-14.088 14.088v211.323h28.176v-84.529h70.441c38.839 0 70.441-31.602 70.441-70.441s-31.602-70.441-70.441-70.441zm0 112.706h-70.441v-84.529h70.441c23.306 0 42.265 18.959 42.265 42.265s-18.958 42.264-42.265 42.264z"/>
</svg>
