<svg id="Capa_1" enable-background="new 0 0 512 512" height="512" viewBox="0 0 512 512" width="512"
     xmlns="http://www.w3.org/2000/svg">
    <g>
        <path fill="#dadadc" d="m417.216 208.781-9.69-87.215c-3.062-27.534-28.091-49.934-55.793-49.934h-191.461c-27.705 0-52.733 22.401-55.793 49.935l-9.691 87.214c-17.977 8.141-30.52 26.237-30.52 47.219v58.91c0 20.569 12.047 38.376 29.456 46.74v26.899c0 28.573 23.247 51.818 51.82 51.818h14.728c28.573 0 51.818-23.246 51.818-51.818v-21.818h87.825v21.818c0 28.573 23.246 51.818 51.818 51.818h14.729c28.572 0 51.818-23.246 51.818-51.818v-26.899c17.408-8.363 29.455-26.17 29.455-46.74v-58.91c0-20.982-12.543-39.078-30.519-47.219zm.519 106.129c0 12.032-9.788 21.821-21.818 21.821h-279.828c-12.032 0-21.821-9.789-21.821-21.821v-58.91c0-12.031 9.789-21.818 21.821-21.818h279.828c12.03 0 21.818 9.788 21.818 21.818zm-257.463-213.278h191.461c12.679 0 24.575 10.647 25.977 23.248l8.812 79.302h-261.039l8.812-79.301c1.4-12.602 13.296-23.249 25.977-23.249zm21.818 286.918c0 12.031-9.788 21.818-21.818 21.818h-14.728c-12.032 0-21.82-9.788-21.82-21.818v-21.818h58.366zm184.371 21.818h-14.729c-12.03 0-21.818-9.788-21.818-21.818v-21.818h58.365v21.818c.001 12.031-9.787 21.818-21.818 21.818z"/>
        <path fill="#dadadc" d="m145.544 248.365c-20.453 0-37.093 16.639-37.093 37.091 0 20.453 16.64 37.092 37.093 37.092 20.451 0 37.09-16.639 37.09-37.092 0-20.452-16.639-37.091-37.09-37.091zm0 44.183c-3.911 0-7.093-3.181-7.093-7.092 0-3.91 3.182-7.091 7.093-7.091 3.909 0 7.09 3.181 7.09 7.091 0 3.911-3.181 7.092-7.09 7.092z"/>
        <path fill="#dadadc" d="m366.461 248.365c-20.453 0-37.094 16.639-37.094 37.091 0 20.453 16.641 37.092 37.094 37.092 20.451 0 37.09-16.639 37.09-37.092 0-20.452-16.638-37.091-37.09-37.091zm0 44.183c-3.911 0-7.094-3.181-7.094-7.092 0-3.91 3.183-7.091 7.094-7.091 3.909 0 7.09 3.181 7.09 7.091 0 3.911-3.18 7.092-7.09 7.092z"/>
        <path fill="#dadadc" d="m456.835 0h-401.667c-30.42 0-55.168 24.748-55.168 55.167v401.666c0 30.42 24.748 55.167 55.168 55.167h401.667c30.418 0 55.165-24.747 55.165-55.167v-401.666c0-30.419-24.747-55.167-55.165-55.167zm25.166 456.833c0 13.877-11.289 25.167-25.166 25.167h-401.667c-13.877 0-25.168-11.29-25.168-25.167v-401.666c0-13.877 11.291-25.167 25.168-25.167h401.667c13.877 0 25.166 11.29 25.166 25.167z"/>
    </g>
</svg>
